<svg xmlns="http://www.w3.org/2000/svg" version="1.1" xmlns:xlink="http://www.w3.org/1999/xlink" width="60" height="60"><svg xmlns="http://www.w3.org/2000/svg" version="1.1" xmlns:xlink="http://www.w3.org/1999/xlink" width="60" height="60"><svg id="Ebene_1" xmlns="http://www.w3.org/2000/svg" xmlns:xlink="http://www.w3.org/1999/xlink" version="1.1" viewBox="0 0 60 60">
  <!-- Generator: Adobe Illustrator 30.1.0, SVG Export Plug-In . SVG Version: 2.1.1 Build 136)  -->
  <defs>
    <style>
      .st0 {
        fill: none;
      }

      .st1 {
        fill: #2b273a;
      }

      .st2 {
        clip-path: url(#clippath);
      }
    </style>
    <clipPath id="clippath">
      <rect class="st0" x="15.3" width="29.5" height="60"></rect>
    </clipPath>
  </defs>
  <g class="st2">
    <g>
      <path class="st1" d="M25.8,0v57.1h8.6V13.8L25.8,0Z"></path>
      <path class="st1" d="M37.1,23.2h-.8v34.9h-12.6v-31.6h-.8v32.2h14.2V23.2Z"></path>
      <path class="st1" d="M39.3,26.7h-.8v32.8h-16.8s-.1.1-.2,0v-29.6h-.8v29.5c-1.4,0-2.7,0-4.1,0-.5,0-.9.2-1.3,0v.5h29.5v-.5h-5.4V26.7h0Z"></path>
      <path class="st1" d="M25.8,0l8.6,13.8v43.1h-.2c0,.1-8.4.1-8.4.1V0Z"></path>
      <path class="st1" d="M39.3,26.7v32.8h5.4v.5H15.3v-.5c.5.2.8,0,1.3,0,1.4,0,2.7,0,4.1,0v-29.5h.8v29.6c.1,0,.2,0,.2,0h16.8V26.8h.8c0-.1,0-.1,0-.1Z"></path>
      <path class="st1" d="M37.1,23.2v35.4h-14.2V26.5h.8v31.6h12.6V23.2h.8Z"></path>
    </g>
  </g>
  <metadata>
    <sfw xmlns="http://ns.adobe.com/SaveForWeb/1.0/">
      <slices></slices>
      <slicesourcebounds x="-1.23" y="-2.5" width="29.46" height="60" bottomleftorigin="true"></slicesourcebounds>
    </sfw>
  </metadata>
</svg></svg><style>@media (prefers-color-scheme: light) { :root { filter: none; } }
@media (prefers-color-scheme: dark) { :root { filter: none; } }
</style></svg>