<svg width="84" height="91" viewBox="0 0 84 91" fill="none" xmlns="http://www.w3.org/2000/svg">
<path d="M81.5357 31.0082L69.6786 22.259V7.40164H60.7857V15.7082L41.5179 1.5L1.5 31.0082" stroke="#2B273A" stroke-width="3" stroke-linecap="round" stroke-linejoin="round"/>
<path d="M54.8583 41.336C58.1325 41.336 60.7868 38.6937 60.7868 35.4344C60.7868 32.175 58.1325 29.5327 54.8583 29.5327C51.584 29.5327 48.9297 32.175 48.9297 35.4344C48.9297 38.6937 51.584 41.336 54.8583 41.336Z" stroke="#2B273A" stroke-width="3" stroke-linejoin="round"/>
<path d="M28.1786 41.336C31.4528 41.336 34.1071 38.6937 34.1071 35.4344C34.1071 32.175 31.4528 29.5327 28.1786 29.5327C24.9043 29.5327 22.25 32.175 22.25 35.4344C22.25 38.6937 24.9043 41.336 28.1786 41.336Z" stroke="#2B273A" stroke-width="3" stroke-linejoin="round"/>
<path d="M31.1429 88.549H23.7321C22.917 88.549 22.25 87.8851 22.25 87.0736V73.7949" stroke="#2B273A" stroke-width="3" stroke-linecap="round" stroke-linejoin="round"/>
<path d="M41.5167 60.5165C43.9724 60.5165 45.9632 58.5348 45.9632 56.0903C45.9632 53.6458 43.9724 51.6641 41.5167 51.6641C39.061 51.6641 37.0703 53.6458 37.0703 56.0903C37.0703 58.5348 39.061 60.5165 41.5167 60.5165Z" stroke="#2B273A" stroke-width="3" stroke-linecap="round" stroke-linejoin="round"/>
<path d="M32.7428 56.9311C31.8239 56.0164 30.3269 55.7951 29.2746 56.5475C27.9259 57.5213 27.8073 59.3951 28.9337 60.5164L37.0559 68.6164V87.8115C37.0559 88.2246 37.3819 88.5492 37.7969 88.5492H45.2076C45.6226 88.5492 45.9487 88.2246 45.9487 87.8115V68.6164L54.0709 60.5164C55.1973 59.3951 55.0787 57.5065 53.73 56.5475C52.6776 55.7951 51.1807 56.0164 50.2617 56.9311" stroke="#2B273A" stroke-width="3" stroke-linecap="round" stroke-linejoin="round"/>
<path d="M51.8938 88.5492H62.2688C63.0839 88.5492 63.7509 87.8852 63.7509 87.0738V52.6377C63.7509 51.0738 64.3734 49.5688 65.485 48.4623L74.6891 39.3C75.9193 38.0754 75.9193 36.0984 74.6891 34.8738C73.4589 33.6492 71.4729 33.6492 70.2427 34.8738L54.8581 50.1885L48.9295 44.2869L44.8239 45.9246C42.7045 46.7656 40.3331 46.7656 38.2136 45.9246L34.1081 44.2869L28.1795 50.1885L12.7948 34.8738C11.5647 33.6492 9.57859 33.6492 8.34842 34.8738C7.11824 36.0984 7.11824 38.0754 8.34842 39.3L19.7757 50.6754C21.3023 52.1951 21.8804 54.4082 21.2875 56.4738L16.3223 73.7951H29.6616" stroke="#2B273A" stroke-width="3" stroke-linecap="round" stroke-linejoin="round"/>
<path d="M54.8555 70.8442V88.5492" stroke="#2B273A" stroke-width="3" stroke-linecap="round" stroke-linejoin="round"/>
</svg>
