<svg width="66" height="95" viewBox="0 0 66 95" fill="none" xmlns="http://www.w3.org/2000/svg">
<g clip-path="url(#clip0_42_165)">
<path d="M1.83398 7.30772L1.83398 87.6923C1.83398 90.7193 4.29642 93.1731 7.33398 93.1731H58.6673C61.7049 93.1731 64.1673 90.7193 64.1673 87.6923V7.30772C64.1673 4.28077 61.7049 1.82694 58.6673 1.82694H7.33398C4.29642 1.82694 1.83398 4.28077 1.83398 7.30772Z" stroke="#2B273A" stroke-width="3" stroke-linecap="round" stroke-linejoin="round"/>
<path d="M53.1673 45.6731V21.9231C48.1073 21.9231 44.0006 17.8308 44.0006 12.7885H22.0007C22.0007 17.8308 17.894 21.9231 12.834 21.9231V73.0769C17.894 73.0769 22.0007 77.1692 22.0007 82.2115H44.0006C44.0006 77.1692 48.1073 73.0769 53.1673 73.0769V60.2885" stroke="#2B273A" stroke-width="3" stroke-linecap="round" stroke-linejoin="round"/>
<path d="M53.1667 52.9808H42.1667C40.15 52.9808 38.5 51.3366 38.5 49.3269C38.5 47.3173 40.15 45.6731 42.1667 45.6731H53.1667C55.1833 45.6731 56.8333 47.3173 56.8333 49.3269C56.8333 51.3366 55.1833 52.9808 53.1667 52.9808Z" stroke="#2B273A" stroke-width="3" stroke-linecap="round" stroke-linejoin="round"/>
</g>
<defs>
<clipPath id="clip0_42_165">
<rect width="66" height="95" fill="white"/>
</clipPath>
</defs>
</svg>
