<?xml version="1.0" encoding="UTF-8"?>
<svg id="Ebene_1" xmlns="http://www.w3.org/2000/svg" xmlns:xlink="http://www.w3.org/1999/xlink" version="1.1" viewBox="0 0 103 95">
  <!-- Generator: Adobe Illustrator 30.1.0, SVG Export Plug-In . SVG Version: 2.1.1 Build 136)  -->
  <defs>
    <style>
      .st0, .st1 {
        fill: none;
      }

      .st1 {
        stroke: #2b273a;
        stroke-linecap: round;
        stroke-linejoin: round;
        stroke-width: 3px;
      }

      .st2 {
        clip-path: url(#clippath);
      }
    </style>
    <clipPath id="clippath">
      <rect class="st0" width="103" height="95"/>
    </clipPath>
  </defs>
  <g class="st2">
    <g>
      <path class="st1" d="M89.1,93H13.9"/>
      <path class="st1" d="M13.9,21.8h75.3"/>
      <path class="st1" d="M89.1,93c6.6,0,11.9-5.3,11.9-11.9M101,81.1c0-6.6-5.3-11.9-11.9-11.9V2c6.6,0,11.9,5.3,11.9,11.9v67.3Z"/>
      <path class="st1" d="M13.9,93c-6.6,0-11.9-5.3-11.9-11.9M2,81.1c0-6.6,5.3-11.9,11.9-11.9V2C7.3,2,2,7.3,2,13.9v67.3Z"/>
      <path class="st1" d="M69.3,63.3v13.9c0,2.2-1.8,4-4,4h-27.7c-2.2,0-4-1.8-4-4v-13.9"/>
      <path class="st1" d="M45.6,81.1v-15.8h11.9v15.8"/>
      <path class="st1" d="M69.3,51.5v-13.9h-7.9v5.9l-9.9-9.9-23.8,23.8,5.9,5.9,17.8-17.8,17.8,17.8,5.9-5.9-5.9-5.9Z"/>
    </g>
  </g>
  <metadata>
    <sfw xmlns="http://ns.adobe.com/SaveForWeb/1.0/">
      <slices/>
      <sliceSourceBounds x="0" y="0" width="103" height="95" bottomLeftOrigin="true"/>
    </sfw>
  </metadata>
</svg>