<svg width="90" height="90" viewBox="0 0 90 90" fill="none" xmlns="http://www.w3.org/2000/svg">
<g clip-path="url(#clip0_28_200)">
<path d="M39.2715 70.425L55.6965 86.8327C57.6003 88.7365 60.6984 88.7365 62.6196 86.8327C64.5234 84.9288 64.5234 81.8308 62.6196 79.9096L46.2119 63.4846" stroke="#2B273A" stroke-width="3" stroke-linejoin="round"/>
<path d="M25.9612 74.4231C39.3435 74.4231 50.192 63.5746 50.192 50.1923C50.192 36.81 39.3435 25.9615 25.9612 25.9615C12.579 25.9615 1.73047 36.81 1.73047 50.1923C1.73047 63.5746 12.579 74.4231 25.9612 74.4231Z" stroke="#2B273A" stroke-width="3" stroke-linecap="round" stroke-linejoin="round"/>
<path d="M12.1152 50.1923C12.1152 42.5423 18.3114 36.3462 25.9614 36.3462" stroke="#2B273A" stroke-width="3" stroke-linecap="round" stroke-linejoin="round"/>
<path d="M41.5391 22.4999L62.3083 1.73071L74.4237 13.8461V5.19225H81.3468V20.7692L88.2698 27.6923L83.0775 32.8846L62.3083 12.1153L46.7314 27.6923" stroke="#2B273A" stroke-width="3" stroke-linecap="round" stroke-linejoin="round"/>
<path d="M57.1152 50.1923V32.8846H67.4998V50.1923" stroke="#2B273A" stroke-width="3" stroke-linejoin="round"/>
<path d="M57.1152 50.1923H77.8845C79.7883 50.1923 81.346 48.6346 81.346 46.7307V31.1538" stroke="#2B273A" stroke-width="3" stroke-linecap="round" stroke-linejoin="round"/>
<path d="M64.0391 69.2308L65.7698 67.5" stroke="#2B273A" stroke-width="3" stroke-linecap="round" stroke-linejoin="round"/>
<path d="M70.9609 62.3077L72.6917 60.5769" stroke="#2B273A" stroke-width="3" stroke-linecap="round" stroke-linejoin="round"/>
<path d="M72.6917 69.2308L70.9609 67.5" stroke="#2B273A" stroke-width="3" stroke-linecap="round" stroke-linejoin="round"/>
<path d="M65.7698 62.3077L64.0391 60.5769" stroke="#2B273A" stroke-width="3" stroke-linecap="round" stroke-linejoin="round"/>
<path d="M19.0391 17.3077L20.7698 15.5769" stroke="#2B273A" stroke-width="3" stroke-linecap="round" stroke-linejoin="round"/>
<path d="M25.9609 10.3846L27.6917 8.65381" stroke="#2B273A" stroke-width="3" stroke-linecap="round" stroke-linejoin="round"/>
<path d="M27.6917 17.3077L25.9609 15.5769" stroke="#2B273A" stroke-width="3" stroke-linecap="round" stroke-linejoin="round"/>
<path d="M20.7698 10.3846L19.0391 8.65381" stroke="#2B273A" stroke-width="3" stroke-linecap="round" stroke-linejoin="round"/>
</g>
<defs>
<clipPath id="clip0_28_200">
<rect width="90" height="90" fill="white"/>
</clipPath>
</defs>
</svg>
