<svg width="88" height="95" viewBox="0 0 88 95" fill="none" xmlns="http://www.w3.org/2000/svg">
<g clip-path="url(#clip0_42_132)">
<path d="M40.5547 3.41995L3.43987 40.405C1.29198 42.5454 1.29199 46.0156 3.43987 48.156L10.3236 55.0156C12.4714 57.156 15.9538 57.156 18.1017 55.0156L55.2166 18.0305C57.3645 15.8902 57.3645 12.4199 55.2166 10.2796L48.3329 3.41994C46.185 1.27957 42.7026 1.27957 40.5547 3.41995Z" stroke="#2B273A" stroke-width="3" stroke-linecap="round" stroke-linejoin="round"/>
<path d="M75.0927 80.3115L62.3327 67.5961C60.316 69.6057 57.016 69.6057 54.9993 67.5961L53.166 65.7692L69.666 49.3269L71.4994 51.1538C73.516 53.1634 73.516 56.4519 71.4994 58.4615L84.2593 71.1769C86.7894 73.6981 86.7894 77.7904 84.2593 80.3115C81.7293 82.8327 77.6227 82.8327 75.0927 80.3115Z" stroke="#2B273A" stroke-width="3" stroke-linecap="round" stroke-linejoin="round"/>
<path d="M62.334 67.5962L66.0007 63.9424" stroke="#2B273A" stroke-width="3" stroke-linecap="round" stroke-linejoin="round"/>
<path d="M64.1668 54.7894V8.78745C64.1668 6.66822 63.3234 4.64034 61.8201 3.14226C60.0784 1.40668 57.2551 1.40668 55.5134 3.14226L51.7734 6.86918" stroke="#2B273A" stroke-width="3" stroke-linecap="round" stroke-linejoin="round"/>
<path d="M1.83398 56.6345V76.7307C1.83398 79.7634 4.29065 82.2114 7.33398 82.2114C10.3773 82.2114 12.834 79.7634 12.834 76.7307C12.834 74.7211 14.484 73.0768 16.5007 73.0768C18.5173 73.0768 20.1673 74.7211 20.1673 76.7307V87.6922C20.1673 90.7249 22.624 93.173 25.6673 93.173C28.7106 93.173 31.1673 90.7249 31.1673 87.6922V69.4047C31.1673 67.3951 32.799 65.7691 34.8156 65.7691C36.8506 65.7691 38.4823 67.4134 38.464 69.4412V76.7307C38.4456 79.7634 40.9023 82.2114 43.9456 82.2114C46.989 82.2114 49.4456 79.7634 49.4456 76.7307L49.4823 73.0768" stroke="#2B273A" stroke-width="3" stroke-linecap="round" stroke-linejoin="round"/>
</g>
<defs>
<clipPath id="clip0_42_132">
<rect width="88" height="95" fill="white"/>
</clipPath>
</defs>
</svg>
