<?xml version="1.0" encoding="UTF-8"?>
<svg id="Ebene_1" xmlns="http://www.w3.org/2000/svg" xmlns:xlink="http://www.w3.org/1999/xlink" version="1.1" viewBox="0 0 95 95">
  <!-- Generator: Adobe Illustrator 30.1.0, SVG Export Plug-In . SVG Version: 2.1.1 Build 136)  -->
  <defs>
    <style>
      .st0, .st1 {
        fill: none;
      }

      .st1 {
        stroke: #2b273a;
        stroke-linejoin: round;
        stroke-width: 3px;
      }

      .st2 {
        clip-path: url(#clippath);
      }
    </style>
    <clipPath id="clippath">
      <rect class="st0" width="95" height="95"/>
    </clipPath>
  </defs>
  <g class="st2">
    <g>
      <path class="st1" d="M12.8,51.2v34.7c0,4,3.3,7.3,7.3,7.3h54.8c4,0,7.3-3.3,7.3-7.3v-34.7"/>
      <path class="st1" d="M78.6,32.9V9.1h-11v12.8L47.5,1.8,1.8,47.5l7.3,7.3L47.5,16.4l38.4,38.4,7.3-7.3-14.6-14.6Z"/>
      <path class="st1" d="M45.9,77.6l-7.6,4.2c-2.1,1.2-4.7-.6-4.3-3l1.5-9.4c.2-1-.2-2-.9-2.8l-6.5-6.7c-1.7-1.7-.7-4.6,1.6-4.9l8.7-1.3c1.1-.2,2-.8,2.4-1.8l3.8-8.2c1-2.2,4.2-2.2,5.2,0l3.8,8.2c.5,1,1.4,1.6,2.4,1.8l8.8,1.3c2.3.4,3.3,3.2,1.6,4.9l-6.5,6.7c-.7.7-1,1.8-.9,2.8l1.5,9.4c.4,2.4-2.2,4.2-4.3,3l-7.6-4.2c-1-.5-2.2-.5-3.1,0h0Z"/>
    </g>
  </g>
  <metadata>
    <sfw xmlns="http://ns.adobe.com/SaveForWeb/1.0/">
      <slices/>
      <sliceSourceBounds x="0" y="0" width="95" height="95" bottomLeftOrigin="true"/>
    </sfw>
  </metadata>
</svg>