<svg width="81" height="95" viewBox="0 0 81 95" fill="none" xmlns="http://www.w3.org/2000/svg">
<path d="M68.7289 71.0029C62.223 71.0029 56.9727 76.2659 56.9727 82.7449" stroke="#2B273A" stroke-width="3" stroke-linecap="round" stroke-linejoin="round"/>
<path d="M68.7289 35.7578C62.223 35.7578 56.9727 41.0208 56.9727 47.4998C56.9727 53.9788 62.242 59.2418 68.7289 59.2418" stroke="#2B273A" stroke-width="3" stroke-linecap="round" stroke-linejoin="round"/>
<path d="M56.9727 12.2549C56.9727 18.7529 62.242 23.9969 68.7289 23.9969" stroke="#2B273A" stroke-width="3" stroke-linecap="round" stroke-linejoin="round"/>
<path d="M40.5004 76.8739C46.9931 76.8739 52.2566 71.6168 52.2566 65.1319C52.2566 58.647 46.9931 53.3899 40.5004 53.3899C34.0076 53.3899 28.7441 58.647 28.7441 65.1319C28.7441 71.6168 34.0076 76.8739 40.5004 76.8739Z" stroke="#2B273A" stroke-width="3" stroke-linecap="round" stroke-linejoin="round"/>
<path d="M40.5004 41.61C46.9931 41.61 52.2566 36.3529 52.2566 29.868C52.2566 23.383 46.9931 18.126 40.5004 18.126C34.0076 18.126 28.7441 23.383 28.7441 29.868C28.7441 36.3529 34.0076 41.61 40.5004 41.61Z" stroke="#2B273A" stroke-width="3" stroke-linecap="round" stroke-linejoin="round"/>
<path d="M24.0258 82.7449C24.0258 76.2469 18.7564 71.0029 12.2695 71.0029" stroke="#2B273A" stroke-width="3" stroke-linecap="round" stroke-linejoin="round"/>
<path d="M12.2695 59.2418C18.7754 59.2418 24.0258 53.9788 24.0258 47.4998C24.0258 41.0208 18.7564 35.7578 12.2695 35.7578" stroke="#2B273A" stroke-width="3" stroke-linecap="round" stroke-linejoin="round"/>
<path d="M12.2695 23.9969C18.7754 23.9969 24.0258 18.7339 24.0258 12.2549" stroke="#2B273A" stroke-width="3" stroke-linecap="round" stroke-linejoin="round"/>
<path d="M78.1465 92.1501V2.8501L2.85339 2.8501V92.1501H78.1465Z" stroke="#2B273A" stroke-width="3" stroke-linecap="round" stroke-linejoin="round"/>
</svg>
