<svg width="75" height="95" viewBox="0 0 75 95" fill="none" xmlns="http://www.w3.org/2000/svg">
<g clip-path="url(#clip0_28_484)">
<path d="M54.5453 37.3214C57.3695 37.3214 59.6589 35.0428 59.6589 32.2321C59.6589 29.4214 57.3695 27.1428 54.5453 27.1428C51.7211 27.1428 49.4316 29.4214 49.4316 32.2321C49.4316 35.0428 51.7211 37.3214 54.5453 37.3214Z" stroke="#2B273A" stroke-width="3" stroke-linecap="round" stroke-linejoin="round"/>
<path d="M41.8802 13.5544C31.9086 13.9786 23.9484 22.1384 23.9484 32.1812C23.9484 34.2169 24.2893 36.1678 24.903 38.0169L1.7041 61.0714V72.9464H15.3405V62.7678H25.5677V52.5893H34.0905L34.8405 51.8428" stroke="#2B273A" stroke-width="3" stroke-linecap="round" stroke-linejoin="round"/>
<path d="M57.955 32.2321C66.4266 32.2321 73.2959 25.3955 73.2959 16.9643C73.2959 8.53302 66.4266 1.69641 57.955 1.69641C53.2845 1.69641 49.1084 3.78302 46.2959 7.05713" stroke="#2B273A" stroke-width="3" stroke-linecap="round" stroke-linejoin="round"/>
<path d="M70.4664 25.7857C67.1595 20.4928 61.2789 16.9642 54.5459 16.9642C44.1823 16.9642 35.7959 25.3107 35.7959 35.6249C35.7959 42.8687 39.955 49.1455 46.0232 52.233V84.8214L54.5459 93.3035L63.0686 84.8214L56.2504 78.0357L63.0686 71.2499L56.2504 64.4642L63.0686 57.6785V52.233C69.1368 49.1455 73.2959 42.8687 73.2959 35.6249C73.2959 34.7428 73.2107 33.8776 73.0914 33.0294" stroke="#2B273A" stroke-width="3" stroke-linecap="round" stroke-linejoin="round"/>
</g>
<defs>
<clipPath id="clip0_28_484">
<rect width="75" height="95" fill="white"/>
</clipPath>
</defs>
</svg>
