<svg width="88" height="95" viewBox="0 0 88 95" fill="none" xmlns="http://www.w3.org/2000/svg">
<g clip-path="url(#clip0_42_122)">
<path d="M45.834 52.9807H27.5007C25.4756 52.9807 23.834 54.6166 23.834 56.6346V60.2884C23.834 62.3064 25.4756 63.9423 27.5007 63.9423H45.834C47.859 63.9423 49.5007 62.3064 49.5007 60.2884V56.6346C49.5007 54.6166 47.859 52.9807 45.834 52.9807Z" stroke="#2B273A" stroke-width="3" stroke-linecap="round" stroke-linejoin="round"/>
<path d="M82.5 27.4038H64.1667C62.1416 27.4038 60.5 29.0397 60.5 31.0577V34.7115C60.5 36.7295 62.1416 38.3653 64.1667 38.3653H82.5C84.525 38.3653 86.1667 36.7295 86.1667 34.7115V31.0577C86.1667 29.0397 84.525 27.4038 82.5 27.4038Z" stroke="#2B273A" stroke-width="3" stroke-linecap="round" stroke-linejoin="round"/>
<path d="M82.5 1.8269H64.1667C62.1416 1.8269 60.5 3.46279 60.5 5.48075V9.1346C60.5 11.1526 62.1416 12.7884 64.1667 12.7884H82.5C84.525 12.7884 86.1667 11.1526 86.1667 9.1346V5.48075C86.1667 3.46279 84.525 1.8269 82.5 1.8269Z" stroke="#2B273A" stroke-width="3" stroke-linecap="round" stroke-linejoin="round"/>
<path d="M1.83398 27.4038L1.83398 45.6731C1.83398 47.691 3.47561 49.3269 5.50065 49.3269H9.16732C11.1924 49.3269 12.834 47.691 12.834 45.6731L12.834 27.4038C12.834 25.3859 11.1924 23.75 9.16732 23.75H5.50065C3.47561 23.75 1.83398 25.3859 1.83398 27.4038Z" stroke="#2B273A" stroke-width="3" stroke-linecap="round" stroke-linejoin="round"/>
<path d="M12.834 27.4038V45.673H22.0007C25.044 45.673 27.5007 48.1211 27.5007 51.1538V52.9807H45.834V51.1538C45.834 38.0365 35.164 27.4038 22.0007 27.4038H12.834Z" stroke="#2B273A" stroke-width="3" stroke-linecap="round" stroke-linejoin="round"/>
<path d="M64.1667 38.3655V65.7693C64.1667 70.8116 60.06 74.9039 55 74.9039C49.94 74.9039 45.8333 70.8116 45.8333 65.7693V63.9424H27.5V65.7693C27.5 80.8962 39.82 93.1732 55 93.1732C70.18 93.1732 82.5 80.8962 82.5 65.7693V38.3655H64.1667Z" stroke="#2B273A" stroke-width="3" stroke-linecap="round" stroke-linejoin="round"/>
<path d="M82.5 27.404V12.7886L64.1667 12.7886V27.404H82.5Z" stroke="#2B273A" stroke-width="3" stroke-linecap="round" stroke-linejoin="round"/>
</g>
<defs>
<clipPath id="clip0_42_122">
<rect width="88" height="95" fill="white"/>
</clipPath>
</defs>
</svg>
