<svg width="76" height="90" viewBox="0 0 76 90" fill="none" xmlns="http://www.w3.org/2000/svg">
<g clip-path="url(#clip0_28_281)">
<path d="M46.6357 64.0384V81.3461C46.6357 85.1711 43.5438 88.2692 39.7266 88.2692H8.63565C4.81838 88.2692 1.72656 85.1711 1.72656 81.3461V15.5769C1.72656 11.7519 4.81838 8.65381 8.63565 8.65381" stroke="#2B273A" stroke-width="3" stroke-linecap="round" stroke-linejoin="round"/>
<path d="M20.7266 77.8846H27.6357" stroke="#2B273A" stroke-width="3" stroke-linecap="round" stroke-linejoin="round"/>
<path d="M39.7267 57.1153L29.3631 67.4999V57.1153H24.1813C19.414 57.1153 15.5449 53.2384 15.5449 48.4615V10.3846C15.5449 5.60764 19.414 1.73071 24.1813 1.73071H65.6358C70.4031 1.73071 74.2722 5.60764 74.2722 10.3846V48.4615C74.2722 53.2384 70.4031 57.1153 65.6358 57.1153H39.7267Z" stroke="#2B273A" stroke-width="3" stroke-linejoin="round"/>
<path d="M58.7282 32.8846V45C58.7282 45.952 57.9509 46.7308 57.0009 46.7308H32.8191C31.8691 46.7308 31.0918 45.952 31.0918 45V32.8846" stroke="#2B273A" stroke-width="3" stroke-linecap="round" stroke-linejoin="round"/>
<path d="M31.09 32.8846L44.9082 19.0384L58.7264 32.8846L63.9082 27.6923L44.9082 8.65381L25.9082 27.6923L31.09 32.8846Z" stroke="#2B273A" stroke-width="3" stroke-linecap="round" stroke-linejoin="round"/>
<path d="M41.4551 46.7308V32.8846H48.3642V46.7308" stroke="#2B273A" stroke-width="3" stroke-linecap="round" stroke-linejoin="round"/>
</g>
<defs>
<clipPath id="clip0_28_281">
<rect width="76" height="90" fill="white"/>
</clipPath>
</defs>
</svg>
