<svg width="27" height="55" viewBox="0 0 27 55" fill="none" xmlns="http://www.w3.org/2000/svg">
<g clip-path="url(#clip0_28_423)">
<path d="M9.63379 0V52.306H17.3034L17.4929 52.1864V12.641L9.63379 0Z" fill="#2B273A"/>
<path d="M20.0294 21.2393H19.268V53.2569H7.73234V24.2506H6.97266V53.7318H20.0294V21.2393Z" fill="#2B273A"/>
<path d="M22.0564 24.4886L21.295 24.6071V54.524H5.89499C5.85607 54.524 5.79685 54.6245 5.70549 54.6033V27.4989H4.94411V54.524C3.70054 54.5505 2.44342 54.4902 1.19985 54.5208C0.770094 54.5314 0.414787 54.6901 0.00195312 54.524V55H27.002V54.524H22.0581V24.4886H22.0564Z" fill="#2B273A"/>
<path d="M9.63379 0L17.4929 12.641V52.1864L17.3034 52.306H9.63379V0Z" fill="#2B273A"/>
<path d="M22.0561 24.4886V54.5251H27V55.0011H0V54.5251C0.414526 54.6901 0.769833 54.5325 1.19959 54.5219C2.44316 54.4912 3.70197 54.5515 4.94385 54.5251V27.5H5.70523V54.6044C5.79828 54.6256 5.8575 54.5251 5.89472 54.5251H21.2965V24.6071L22.0578 24.4886H22.0561Z" fill="#2B273A"/>
<path d="M20.0294 21.2393V53.7318H6.97266V24.2506H7.73234V53.2569H19.268V21.2393H20.0294Z" fill="#2B273A"/>
</g>
<defs>
<clipPath id="clip0_28_423">
<rect width="27" height="55" fill="white"/>
</clipPath>
</defs>
</svg>
